# xmcd
#
# Track frame offsets:
#	150
#	10585
#	23979
#	35006
#	46742
#	58801
#	67248
#	76729
#	87787
#	99237
#	109527
#	119547
#	132004
#	141342
#
# Disc length: 2051 seconds
#
# Revision: 0
# Processed by: cddbd v1.5.2PL0 Copyright (c) Steve Scherf et al.
# Submitted via: audiograbber 1.83.01
#
DISCID=b208010e
DTITLE=George Jones - Grand Ole Opry's New Star
DYEAR=1957
DGENRE=Country
TTITLE0=Why Baby Why
TTITLE1=Seasons Of My Heart
TTITLE2=It's Ok
TTITLE3=Let Him Know
TTITLE4=Play It Cool Man
TTITLE5=Hold Everything
TTITLE6=Boat Of Life
TTITLE7=You Gotta Be My Baby
TTITLE8=What Am I Worth
TTITLE9=Your Heart Turned Left (And I Was On The Right)
TTITLE10=Ragged But Right
TTITLE11=Yearning
TTITLE12=Still Hurtin'
TTITLE13=Taggin' Along
EXTD=
EXTT0=
EXTT1=
EXTT2=
EXTT3=
EXTT4=
EXTT5=
EXTT6=
EXTT7=
EXTT8=
EXTT9=
EXTT10=
EXTT11=
EXTT12=
EXTT13=
PLAYORDER=
